# xmcd
#
# Track frame offsets: 
#        150
#        31006
#        60006
#        84279
#        110291
#        139308
#        159149
#        176518
#        195906
#        215371
#        234959
#
# Disc length: 3412 seconds
#
# Revision: 3
# Processed by: cddbd v1.5.2PL0 Copyright (c) Steve Scherf et al.
# Submitted via: ExactAudioCopy v0.99pb5
#
DISCID=730d520b
DTITLE=Eli Degibri - Israeli Song
DYEAR=2010
DGENRE=Anzic
TTITLE0=Unrequited
TTITLE1=Mr. R.C.
TTITLE2=Judy The Dog
TTITLE3=Jealous Eyes
TTITLE4=Manic Depressive
TTITLE5=Bebop
TTITLE6=Liora
TTITLE7=Look What You Do To Me
TTITLE8=Third Plane
TTITLE9=Somewhere Over The Rainbow
TTITLE10=Israeli Song
EXTD=YEAR: 2010
EXTT0=
EXTT1=
EXTT2=
EXTT3=
EXTT4=
EXTT5=
EXTT6=
EXTT7=
EXTT8=
EXTT9=
EXTT10=
PLAYORDER=
